<?xml version="1.0" standalone="no"?>
<!DOCTYPE svg PUBLIC "-//W3C//DTD SVG 20010904//EN"
 "http://www.w3.org/TR/2001/REC-SVG-20010904/DTD/svg10.dtd">
<svg version="1.0" xmlns="http://www.w3.org/2000/svg"
 width="3368.000000pt" height="4763.000000pt" viewBox="0 0 3368.000000 4763.000000"
 preserveAspectRatio="xMidYMid meet">

<g transform="translate(0.000000,4763.000000) scale(0.100000,-0.100000)"
fill="#FFFFFF" stroke="none">
<path fill="#253BFF" d="M0 43400 l0 -4230 1839 -1838 c1012 -1010 1850 -1847 1863 -1859 18
-17 192 -190 251 -250 7 -7 43 -43 80 -80 38 -38 2487 -2486 5443 -5440 2956
-2955 5378 -5373 5381 -5373 8 0 43 -41 43 -52 0 -4 5 -8 11 -8 13 0 89 -78
89 -91 0 -5 5 -9 10 -9 13 0 150 -137 150 -150 0 -6 6 -10 13 -10 7 0 19 -9
27 -21 25 -36 47 -59 55 -59 10 0 45 -40 45 -52 0 -4 5 -8 10 -8 6 0 63 -54
128 -119 279 -283 386 -391 829 -834 257 -258 473 -473 478 -478 6 -5 607
-606 1338 -1334 1057 -1055 1327 -1330 1327 -1350 0 -18 5 -25 20 -25 11 0 20
-4 20 -10 0 -7 2377 -10 7110 -10 l7110 0 0 13960 0 13960 -7105 0 -7105 0 0
-5807 c0 -3195 -3 -5825 -6 -5845 -4 -20 -13 -39 -21 -42 -8 -4 -3635 -6
-8060 -6 -6490 0 -8047 2 -8057 13 -10 10 -14 1029 -19 5212 -4 2860 -7 5487
-7 5838 l0 637 -1645 0 -1645 0 0 -4230z m17913 -17245 c9 -20 17 -42 17 -50
0 -8 5 -15 10 -15 6 0 10 -9 10 -20 0 -11 4 -20 8 -20 5 0 15 -22 22 -50 7
-27 16 -50 20 -50 4 0 13 -22 20 -50 7 -27 17 -50 22 -50 4 0 8 -9 8 -20 0
-11 5 -20 10 -20 6 0 10 -9 10 -20 0 -11 5 -20 10 -20 6 0 10 -13 10 -30 0
-16 5 -30 10 -30 6 0 10 -9 10 -20 0 -11 5 -20 10 -20 6 0 10 -13 10 -30 0
-16 5 -30 10 -30 6 0 10 -9 10 -20 0 -11 5 -20 10 -20 6 0 10 -9 10 -20 0 -11
5 -20 10 -20 6 0 10 -9 10 -20 0 -11 5 -20 10 -20 6 0 10 -13 10 -30 0 -16 4
-30 8 -30 5 0 15 -22 22 -50 10 -37 18 -50 32 -50 11 0 18 7 18 20 0 11 5 20
10 20 6 0 10 9 10 20 0 11 5 20 10 20 6 0 10 9 10 20 0 11 5 20 10 20 6 0 10
14 10 30 0 17 4 30 8 30 5 0 15 23 22 50 7 28 17 50 22 50 4 0 8 9 8 20 0 11
5 20 10 20 6 0 10 9 10 20 0 11 4 20 8 20 5 0 15 23 22 50 7 28 16 50 20 50 3
0 12 21 19 48 8 26 17 49 20 52 6 5 25 50 45 108 6 17 14 32 18 32 5 0 8 9 8
20 0 11 5 20 10 20 6 0 10 14 10 30 0 17 5 30 10 30 6 0 10 7 10 16 0 39 22
44 194 44 l166 0 0 -610 0 -610 -130 0 -130 0 0 420 c0 273 -3 420 -10 420 -5
0 -10 -9 -10 -20 0 -11 -4 -20 -8 -20 -5 0 -15 -22 -22 -50 -7 -27 -17 -50
-22 -50 -4 0 -8 -9 -8 -20 0 -11 -4 -20 -10 -20 -5 0 -10 -9 -10 -20 0 -11 -4
-20 -10 -20 -5 0 -10 -13 -10 -30 0 -16 -4 -30 -8 -30 -4 0 -14 -21 -21 -47
-8 -27 -17 -50 -20 -53 -3 -3 -12 -20 -18 -37 -7 -18 -19 -48 -25 -65 -7 -18
-16 -35 -19 -38 -3 -3 -12 -26 -20 -52 -7 -27 -17 -48 -21 -48 -4 0 -8 -13 -8
-30 0 -16 -4 -30 -10 -30 -5 0 -10 -9 -10 -20 0 -11 -4 -20 -10 -20 -5 0 -10
-9 -10 -20 0 -11 -4 -20 -10 -20 -5 0 -10 -12 -10 -26 0 -46 -19 -54 -134 -54
l-106 0 0 30 c0 17 -4 30 -10 30 -5 0 -10 9 -10 20 0 11 -4 20 -10 20 -5 0
-10 14 -10 30 0 17 -4 30 -10 30 -5 0 -10 9 -10 20 0 11 -4 20 -10 20 -5 0
-10 9 -10 20 0 11 -4 20 -8 20 -5 0 -15 23 -22 50 -7 28 -17 50 -22 50 -4 0
-8 14 -8 30 0 17 -3 30 -8 30 -4 0 -13 17 -20 38 -33 91 -37 102 -44 102 -5 0
-8 9 -8 20 0 11 -4 20 -10 20 -5 0 -10 14 -10 30 0 17 -4 30 -10 30 -5 0 -10
9 -10 20 0 11 -4 20 -10 20 -5 0 -10 14 -10 30 0 17 -4 30 -10 30 -5 0 -10 9
-10 20 0 11 -4 20 -10 20 -5 0 -10 7 -10 15 0 20 -22 65 -32 65 -4 0 -8 -193
-8 -430 l0 -430 -114 0 c-95 0 -115 3 -120 16 -3 9 -6 283 -6 610 l0 594 173
0 173 0 17 -35z m1487 5 c7 -16 16 -30 21 -30 5 0 9 -9 9 -20 0 -11 5 -20 10
-20 6 0 10 -9 10 -20 0 -11 4 -20 9 -20 5 0 14 -13 21 -30 7 -16 16 -30 21
-30 5 0 9 -9 9 -20 0 -11 5 -20 10 -20 6 0 10 -9 10 -20 0 -11 4 -20 9 -20 5
0 14 -13 21 -30 7 -16 16 -30 21 -30 5 0 9 -9 9 -20 0 -11 4 -20 9 -20 5 0 14
-13 21 -30 7 -16 16 -30 21 -30 5 0 9 -9 9 -20 0 -11 5 -20 10 -20 6 0 10 -9
10 -20 0 -11 5 -20 10 -20 6 0 10 8 10 18 0 10 9 24 20 32 11 8 20 22 20 32 0
10 4 18 9 18 5 0 14 14 21 30 7 17 16 30 21 30 5 0 9 9 9 20 0 11 5 20 10 20
6 0 10 9 10 20 0 11 5 20 10 20 6 0 10 8 10 18 0 10 9 24 20 32 11 8 20 21 20
30 0 9 9 22 20 30 11 8 20 22 20 32 0 10 5 18 10 18 6 0 10 9 10 20 0 11 5 20
10 20 6 0 10 9 10 20 0 11 4 20 9 20 5 0 13 9 16 20 6 19 15 20 141 20 83 0
134 -4 134 -10 0 -5 -4 -10 -10 -10 -5 0 -10 -8 -10 -18 0 -10 -9 -24 -20 -32
-11 -8 -20 -22 -20 -32 0 -10 -4 -18 -10 -18 -5 0 -10 -8 -10 -18 0 -10 -9
-24 -20 -32 -11 -8 -20 -22 -20 -32 0 -10 -4 -18 -10 -18 -5 0 -10 -8 -10 -18
0 -10 -9 -24 -20 -32 -11 -8 -20 -22 -20 -32 0 -10 -4 -18 -10 -18 -5 0 -10
-9 -10 -20 0 -11 -4 -20 -10 -20 -5 0 -10 -8 -10 -18 0 -10 -9 -24 -20 -32
-11 -8 -20 -22 -20 -32 0 -10 -4 -18 -9 -18 -5 0 -14 -13 -21 -30 -7 -16 -16
-30 -21 -30 -5 0 -9 -9 -9 -20 0 -11 -4 -20 -10 -20 -5 0 -10 -9 -10 -20 0
-11 -4 -20 -9 -20 -5 0 -14 -13 -21 -30 -7 -16 -16 -30 -21 -30 -5 0 -9 -7 -9
-16 0 -9 -10 -25 -22 -36 -22 -19 -23 -26 -26 -241 -1 -122 -5 -232 -7 -244
-5 -22 -9 -23 -119 -23 -95 0 -115 3 -120 16 -3 9 -6 117 -6 240 0 143 -4 224
-10 224 -5 0 -10 9 -10 20 0 11 -4 20 -9 20 -5 0 -14 14 -21 30 -7 17 -16 30
-21 30 -5 0 -9 9 -9 20 0 11 -4 20 -10 20 -5 0 -10 9 -10 20 0 11 -4 20 -9 20
-5 0 -14 14 -21 30 -7 17 -16 30 -21 30 -5 0 -9 8 -9 18 0 10 -9 24 -20 32
-11 8 -20 22 -20 32 0 10 -4 18 -10 18 -5 0 -10 9 -10 20 0 11 -4 20 -9 20 -5
0 -14 14 -21 30 -7 17 -16 30 -21 30 -5 0 -9 9 -9 20 0 11 -4 20 -9 20 -5 0
-14 14 -21 30 -7 17 -16 30 -21 30 -5 0 -9 9 -9 20 0 11 -4 20 -10 20 -5 0
-10 8 -10 18 0 10 -9 24 -20 32 -11 8 -20 22 -20 32 0 10 -4 18 -10 18 -5 0
-10 9 -10 20 0 11 -4 20 -10 20 -5 0 -10 5 -10 10 0 6 53 10 139 10 l139 0 12
-30z m1336 16 c8 -8 14 -22 14 -30 0 -9 5 -16 10 -16 6 0 10 -13 10 -30 0 -16
5 -30 10 -30 6 0 10 -9 10 -20 0 -11 5 -20 10 -20 6 0 10 -9 10 -20 0 -11 5
-20 10 -20 6 0 10 -9 10 -20 0 -11 5 -20 10 -20 6 0 10 -13 10 -30 0 -16 5
-30 10 -30 6 0 10 -13 10 -30 0 -16 5 -30 10 -30 6 0 10 -9 10 -20 0 -11 5
-20 10 -20 6 0 10 -9 10 -20 0 -11 5 -20 10 -20 6 0 10 -9 10 -20 0 -11 5 -20
10 -20 6 0 10 -13 10 -30 0 -16 5 -30 10 -30 6 0 10 -9 10 -20 0 -11 5 -20 10
-20 6 0 10 -13 10 -30 0 -16 5 -30 10 -30 6 0 10 -9 10 -20 0 -11 5 -20 10
-20 6 0 10 -13 10 -30 0 -16 5 -30 10 -30 6 0 10 -9 10 -20 0 -11 5 -20 10
-20 6 0 10 -9 10 -20 0 -11 5 -20 10 -20 6 0 10 -9 10 -20 0 -13 7 -20 20 -20
16 0 20 7 20 30 0 17 5 30 10 30 6 0 10 9 10 20 0 11 5 20 10 20 6 0 10 9 10
20 0 11 5 20 10 20 6 0 10 14 10 30 0 17 5 30 10 30 6 0 10 9 10 20 0 11 5 20
10 20 6 0 10 9 10 20 0 11 5 20 10 20 6 0 10 14 10 30 0 17 5 30 10 30 6 0 10
9 10 20 0 11 5 20 10 20 6 0 10 14 10 30 0 17 5 30 10 30 6 0 10 9 10 20 0 11
5 20 10 20 6 0 10 9 10 20 0 11 5 20 10 20 6 0 10 14 10 30 0 17 5 30 10 30 6
0 10 9 10 20 0 11 5 20 10 20 6 0 10 14 10 30 0 17 5 30 10 30 6 0 10 9 10 20
0 11 5 20 10 20 6 0 10 9 10 20 0 11 5 20 10 20 6 0 10 9 10 20 0 11 5 20 10
20 6 0 10 14 10 30 l0 30 170 0 170 0 0 -610 0 -610 -120 0 -120 0 0 420 c0
231 -3 420 -6 420 -14 0 -34 -31 -34 -54 0 -14 -4 -26 -10 -26 -5 0 -10 -9
-10 -20 0 -11 -4 -20 -10 -20 -5 0 -10 -9 -10 -20 0 -11 -4 -20 -10 -20 -5 0
-10 -13 -10 -30 0 -16 -4 -30 -10 -30 -5 0 -10 -13 -10 -30 0 -16 -4 -30 -10
-30 -5 0 -10 -9 -10 -20 0 -11 -4 -20 -10 -20 -5 0 -10 -9 -10 -20 0 -11 -4
-20 -10 -20 -5 0 -10 -9 -10 -20 0 -11 -4 -20 -10 -20 -5 0 -10 -13 -10 -30 0
-16 -4 -30 -10 -30 -5 0 -10 -9 -10 -20 0 -11 -4 -20 -10 -20 -5 0 -10 -13
-10 -30 0 -16 -4 -30 -10 -30 -5 0 -10 -13 -10 -30 0 -16 -4 -30 -10 -30 -5 0
-10 -9 -10 -20 0 -11 -4 -20 -10 -20 -5 0 -10 -9 -10 -20 0 -11 -4 -20 -10
-20 -5 0 -10 -9 -10 -20 0 -11 -4 -20 -10 -20 -5 0 -10 -13 -10 -30 0 -16 -4
-30 -10 -30 -5 0 -10 -9 -10 -20 0 -19 -7 -20 -110 -20 -103 0 -110 1 -110 20
0 11 -4 20 -10 20 -5 0 -10 9 -10 20 0 11 -4 20 -10 20 -5 0 -10 14 -10 30 0
17 -4 30 -10 30 -5 0 -10 9 -10 20 0 11 -4 20 -10 20 -5 0 -10 9 -10 20 0 11
-4 20 -10 20 -5 0 -10 14 -10 30 0 17 -4 30 -10 30 -5 0 -10 14 -10 30 0 17
-4 30 -10 30 -5 0 -10 9 -10 20 0 11 -4 20 -10 20 -5 0 -10 9 -10 20 0 11 -4
20 -10 20 -5 0 -10 9 -10 20 0 11 -4 20 -10 20 -5 0 -10 14 -10 30 0 17 -4 30
-10 30 -5 0 -10 14 -10 30 0 17 -4 30 -10 30 -5 0 -10 9 -10 20 0 11 -4 20
-10 20 -5 0 -10 14 -10 30 0 17 -4 30 -10 30 -5 0 -10 9 -10 20 0 11 -4 20
-10 20 -5 0 -10 9 -10 20 0 11 -4 20 -10 20 -5 0 -10 14 -10 30 0 17 -4 30
-10 30 -5 0 -10 9 -10 20 0 11 -4 20 -10 20 -7 0 -10 -150 -10 -430 l0 -430
-120 0 -120 0 0 610 0 610 166 0 c130 0 168 -3 180 -14z m8858 -2102 c3 -9 6
-175 6 -370 0 -306 2 -354 15 -354 16 0 52 31 191 168 51 50 96 92 100 92 3 0
27 23 54 50 27 28 53 50 59 50 6 0 11 5 11 10 0 6 40 10 100 10 55 0 100 -2
100 -5 0 -12 -24 -55 -31 -55 -5 0 -35 -25 -66 -55 -124 -117 -176 -165 -180
-165 -2 0 -14 -10 -27 -22 -12 -13 -34 -32 -49 -43 -29 -21 -35 -57 -14 -80 6
-8 28 -33 47 -56 19 -23 46 -54 60 -70 14 -15 36 -42 50 -59 14 -17 36 -43 50
-59 14 -15 41 -47 60 -71 19 -24 46 -55 60 -70 43 -47 80 -94 80 -102 0 -4
-48 -8 -106 -8 -113 0 -112 0 -154 60 -14 19 -44 54 -67 78 -24 23 -43 46 -43
50 0 4 -22 32 -50 61 -27 29 -50 56 -50 60 0 3 -17 25 -39 49 -43 47 -78 54
-101 22 -8 -11 -19 -20 -24 -20 -28 0 -35 -38 -36 -197 l0 -163 -95 0 -95 0 0
624 c0 343 3 631 6 640 5 13 23 16 89 16 66 0 84 -3 89 -16z m-11736 -69 c7
-14 12 -32 12 -40 0 -8 4 -15 8 -15 5 0 15 -22 22 -50 7 -27 17 -50 22 -50 4
0 8 -9 8 -20 0 -11 5 -20 10 -20 6 0 10 -9 10 -20 0 -11 4 -20 8 -20 5 0 15
-22 22 -50 7 -27 17 -50 22 -50 4 0 8 -9 8 -19 0 -11 5 -23 10 -26 6 -3 10
-17 10 -31 0 -13 5 -24 10 -24 6 0 10 -9 10 -20 0 -11 5 -20 10 -20 6 0 10 -9
10 -20 0 -11 4 -20 8 -20 5 0 15 -22 22 -50 7 -27 17 -50 22 -50 4 0 8 -9 8
-19 0 -11 5 -23 10 -26 6 -3 10 -17 10 -31 0 -13 5 -24 10 -24 6 0 10 -9 10
-20 0 -11 5 -20 10 -20 6 0 10 -9 10 -20 0 -11 4 -20 8 -20 5 0 15 -22 22 -50
7 -27 17 -50 22 -50 4 0 8 -9 8 -20 0 -11 4 -20 8 -20 10 0 32 45 32 65 0 8 3
15 8 15 8 0 32 49 32 67 0 7 4 13 8 13 5 0 15 23 22 50 7 28 17 50 22 50 4 0
8 7 8 15 0 15 4 25 28 72 7 13 12 30 12 38 0 8 5 15 10 15 6 0 10 9 10 20 0
11 5 20 10 20 6 0 10 9 10 20 0 11 5 20 10 20 6 0 10 14 10 30 0 17 5 30 10
30 6 0 10 14 10 30 0 17 5 30 10 30 6 0 10 9 10 20 0 11 5 20 10 20 6 0 10 9
10 20 0 11 5 20 10 20 6 0 10 9 10 20 0 11 5 20 10 20 6 0 10 9 10 20 0 11 5
20 10 20 6 0 10 14 10 30 0 17 5 30 10 30 6 0 10 9 10 20 0 11 5 20 10 20 6 0
10 14 10 30 0 17 4 30 9 30 5 0 13 9 16 20 6 19 15 20 141 20 l134 0 0 -610 0
-610 -94 0 c-76 0 -95 3 -100 16 -3 9 -6 225 -6 480 0 255 -3 464 -8 464 -4 0
-18 -36 -32 -80 -14 -44 -28 -80 -32 -80 -5 0 -8 -9 -8 -20 0 -11 -4 -20 -10
-20 -5 0 -10 -9 -10 -20 0 -11 -4 -20 -10 -20 -5 0 -10 -9 -10 -20 0 -11 -4
-20 -10 -20 -5 0 -10 -13 -10 -30 0 -16 -4 -30 -10 -30 -5 0 -10 -9 -10 -19 0
-11 -4 -23 -10 -26 -5 -3 -10 -17 -10 -31 0 -13 -4 -24 -10 -24 -5 0 -10 -9
-10 -20 0 -11 -4 -20 -10 -20 -5 0 -10 -9 -10 -20 0 -11 -4 -20 -8 -20 -5 0
-15 -22 -22 -50 -7 -27 -17 -50 -22 -50 -4 0 -8 -9 -8 -19 0 -11 -4 -23 -10
-26 -5 -3 -10 -17 -10 -31 0 -13 -4 -24 -10 -24 -5 0 -10 -9 -10 -20 0 -11 -4
-20 -10 -20 -5 0 -10 -9 -10 -20 0 -11 -4 -20 -10 -20 -5 0 -10 -9 -10 -19 0
-11 -4 -23 -10 -26 -5 -3 -10 -17 -10 -31 0 -13 -4 -24 -9 -24 -5 0 -11 -12
-13 -27 -3 -28 -3 -28 -90 -31 -83 -3 -88 -2 -88 18 0 11 -4 20 -10 20 -5 0
-10 14 -10 30 0 17 -4 30 -10 30 -5 0 -10 9 -10 20 0 11 -4 20 -10 20 -5 0
-10 11 -10 24 0 14 -4 28 -10 31 -5 3 -10 15 -10 26 0 10 -4 19 -10 19 -5 0
-10 9 -10 20 0 11 -4 20 -10 20 -5 0 -10 9 -10 20 0 11 -4 20 -10 20 -5 0 -10
14 -10 30 0 17 -4 30 -10 30 -5 0 -10 9 -10 19 0 11 -4 23 -10 26 -5 3 -10 17
-10 31 0 13 -4 24 -10 24 -5 0 -10 9 -10 20 0 11 -4 20 -10 20 -5 0 -10 9 -10
20 0 11 -4 20 -10 20 -5 0 -10 9 -10 19 0 11 -4 23 -10 26 -5 3 -10 17 -10 31
0 13 -4 24 -8 24 -5 0 -15 23 -22 50 -7 28 -17 50 -22 50 -4 0 -8 9 -8 20 0
11 -4 20 -10 20 -5 0 -10 9 -10 20 0 11 -4 20 -8 20 -5 0 -15 23 -22 50 -7 28
-17 50 -21 50 -3 0 -10 15 -15 33 -6 20 -10 -160 -12 -470 l-2 -503 -84 0
c-67 0 -85 3 -90 16 -3 9 -6 283 -6 610 l0 594 138 0 139 0 11 -25z m4647 0
c14 -13 25 -31 25 -40 0 -8 5 -15 10 -15 6 0 10 -9 10 -20 0 -11 5 -20 10 -20
6 0 10 -8 10 -18 0 -10 9 -24 20 -32 11 -8 20 -21 20 -30 0 -9 9 -22 20 -30
11 -8 20 -22 20 -32 0 -10 5 -18 10 -18 6 0 10 -9 10 -20 0 -11 5 -20 10 -20
6 0 10 -8 10 -18 0 -10 9 -24 20 -32 11 -8 20 -22 20 -32 0 -10 5 -18 10 -18
6 0 10 -8 10 -18 0 -10 9 -24 20 -32 11 -8 20 -22 20 -32 0 -10 5 -18 10 -18
6 0 10 -9 10 -20 0 -23 25 -27 46 -6 8 8 14 22 14 30 0 9 5 16 10 16 6 0 10 7
10 15 0 8 5 15 10 15 6 0 10 7 10 15 0 8 5 15 10 15 6 0 10 9 10 20 0 11 5 20
10 20 6 0 10 8 10 18 0 10 9 24 20 32 11 8 20 21 20 30 0 9 9 22 20 30 11 8
20 22 20 32 0 10 5 18 10 18 6 0 10 9 10 20 0 11 5 20 10 20 6 0 10 8 10 18 0
10 9 24 20 32 11 8 20 22 20 32 0 10 4 18 9 18 5 0 14 14 21 30 7 17 16 30 21
30 5 0 9 9 9 20 0 19 7 20 100 20 93 0 100 -1 100 -20 0 -11 -4 -20 -10 -20
-5 0 -10 -8 -10 -18 0 -10 -9 -24 -20 -32 -11 -8 -20 -21 -20 -30 0 -9 -9 -22
-20 -30 -11 -8 -20 -22 -20 -32 0 -10 -4 -18 -10 -18 -5 0 -10 -9 -10 -20 0
-11 -4 -20 -9 -20 -5 0 -14 -13 -21 -30 -7 -16 -16 -30 -21 -30 -5 0 -9 -8 -9
-18 0 -10 -9 -24 -20 -32 -11 -8 -20 -22 -20 -32 0 -10 -4 -18 -10 -18 -5 0
-10 -9 -10 -20 0 -11 -4 -20 -8 -20 -5 0 -15 -12 -23 -27 -8 -16 -22 -37 -31
-47 -10 -11 -18 -26 -18 -33 0 -7 -4 -13 -10 -13 -5 0 -10 -9 -10 -20 0 -11
-4 -20 -10 -20 -5 0 -10 -9 -10 -20 0 -11 -4 -20 -8 -20 -5 0 -15 -12 -23 -27
-8 -16 -22 -35 -31 -44 -16 -15 -18 -40 -18 -248 0 -188 -3 -235 -14 -247 -10
-10 -39 -14 -100 -14 l-86 0 0 240 c0 153 -4 240 -10 240 -5 0 -10 9 -10 20 0
11 -4 20 -10 20 -5 0 -10 9 -10 20 0 11 -4 20 -10 20 -5 0 -10 7 -10 15 0 8
-4 15 -10 15 -5 0 -10 7 -10 15 0 8 -4 15 -10 15 -5 0 -10 7 -10 15 0 8 -4 15
-10 15 -5 0 -10 7 -10 15 0 8 -4 15 -10 15 -5 0 -10 9 -10 20 0 11 -4 20 -10
20 -5 0 -10 7 -10 15 0 8 -4 15 -10 15 -5 0 -10 7 -10 15 0 8 -4 15 -10 15 -5
0 -10 8 -10 18 0 10 -9 24 -20 32 -11 8 -20 22 -20 32 0 10 -4 18 -10 18 -5 0
-10 8 -10 18 0 10 -9 24 -20 32 -11 8 -20 22 -20 32 0 10 -4 18 -10 18 -5 0
-10 8 -10 18 0 10 -9 24 -20 32 -11 8 -20 22 -20 32 0 10 -4 18 -10 18 -5 0
-10 8 -10 18 0 10 -9 24 -20 32 -11 8 -20 22 -20 32 0 10 -4 18 -10 18 -5 0
-10 9 -10 20 0 19 7 20 95 20 88 0 98 -2 120 -25z m4538 -30 c15 -31 27 -62
27 -70 0 -8 4 -15 8 -15 5 0 15 -22 22 -50 7 -27 17 -50 22 -50 4 0 8 -7 8
-15 0 -9 14 -42 30 -75 17 -33 30 -66 30 -75 0 -8 4 -15 8 -15 5 0 15 -22 22
-50 7 -27 17 -50 22 -50 4 0 8 -7 8 -15 0 -9 14 -42 30 -75 17 -33 30 -66 30
-75 0 -8 4 -15 8 -15 5 0 15 -22 22 -50 7 -27 17 -50 22 -50 4 0 8 -7 8 -15 0
-20 62 -145 72 -145 4 0 8 9 8 20 0 11 5 20 10 20 6 0 10 11 10 24 0 14 5 28
10 31 6 3 10 15 10 26 0 10 5 19 10 19 6 0 10 7 10 15 0 8 14 43 30 77 17 34
30 67 30 75 0 7 5 13 10 13 6 0 10 9 10 19 0 11 5 23 10 26 6 3 10 17 10 31 0
13 5 24 10 24 6 0 10 7 10 15 0 8 14 43 30 77 17 34 30 67 30 75 0 7 4 13 8
13 5 0 15 23 22 50 7 28 17 50 22 50 4 0 8 7 8 15 0 9 14 42 30 75 17 33 30
66 30 75 0 8 5 15 10 15 6 0 10 7 10 15 0 8 5 26 12 40 11 25 11 25 145 25
l133 0 0 -610 0 -610 -95 0 -95 0 0 480 c0 313 -3 480 -10 480 -5 0 -10 -9
-10 -20 0 -11 -4 -20 -10 -20 -5 0 -10 -7 -10 -15 0 -12 -34 -93 -71 -167 -5
-10 -9 -27 -9 -38 0 -11 -4 -20 -10 -20 -5 0 -10 -9 -10 -20 0 -11 -3 -20 -8
-20 -4 0 -12 -15 -18 -32 -20 -58 -39 -103 -45 -108 -3 -3 -12 -26 -20 -52 -7
-27 -17 -48 -21 -48 -4 0 -8 -7 -8 -15 0 -9 -13 -42 -30 -75 -16 -33 -30 -66
-30 -75 0 -8 -4 -15 -8 -15 -5 0 -15 -22 -22 -50 -7 -27 -17 -50 -22 -50 -4 0
-8 -7 -8 -15 0 -8 -10 -35 -22 -60 l-22 -45 -75 0 c-73 0 -77 1 -88 27 -7 15
-13 33 -13 40 0 7 -4 13 -10 13 -5 0 -10 9 -10 20 0 11 -4 20 -10 20 -5 0 -10
7 -10 15 0 14 -28 85 -51 127 -5 10 -9 27 -9 38 0 11 -4 20 -10 20 -5 0 -10 9
-10 20 0 11 -4 20 -10 20 -5 0 -10 7 -10 15 0 8 -4 23 -10 33 -21 39 -50 107
-50 119 0 7 -4 13 -10 13 -5 0 -10 14 -10 30 0 17 -4 30 -10 30 -5 0 -10 9
-10 20 0 11 -3 20 -8 20 -7 0 -11 11 -44 103 -7 20 -16 37 -20 37 -5 0 -8 9
-8 20 0 11 -4 20 -10 20 -5 0 -10 14 -10 30 0 17 -4 30 -10 30 -5 0 -10 7 -10
15 0 20 -22 65 -32 65 -4 0 -8 -209 -8 -464 0 -255 -3 -471 -6 -480 -5 -13
-23 -16 -90 -16 l-84 0 0 610 0 610 133 0 133 0 27 -55z m-5533 -115 l0 -130
110 0 110 0 0 -70 0 -70 -96 0 c-69 0 -99 -4 -110 -14 -11 -12 -14 -69 -14
-320 l0 -306 120 0 120 0 0 -70 0 -70 -166 0 c-106 0 -173 4 -187 12 -28 15
-47 34 -47 47 0 6 -4 11 -10 11 -6 0 -10 120 -10 341 0 282 -2 343 -14 355
-10 10 -38 14 -90 14 l-76 0 0 56 c0 75 11 84 104 84 l76 0 0 130 0 130 90 0
90 0 0 -130z m-1820 -120 c0 -5 23 -10 50 -10 28 0 50 -4 50 -10 0 -5 9 -10
20 -10 11 0 20 -4 20 -10 0 -5 7 -10 15 -10 23 0 153 -135 170 -177 8 -19 15
-46 15 -59 0 -13 5 -24 10 -24 6 0 10 -40 10 -100 l0 -100 -360 0 -360 0 0
-29 c0 -17 5 -33 10 -36 6 -3 10 -15 10 -26 0 -17 17 -56 30 -69 3 -3 11 -17
19 -32 8 -15 27 -33 43 -40 15 -7 28 -16 28 -20 0 -5 9 -8 20 -8 11 0 20 -4
20 -10 0 -6 44 -10 113 -10 96 0 116 3 137 20 14 11 29 20 33 20 10 0 37 26
37 35 0 4 9 20 21 36 20 28 23 29 106 29 l85 0 -7 -37 c-4 -21 -11 -39 -16
-41 -5 -2 -9 -12 -9 -23 0 -10 -4 -19 -10 -19 -5 0 -10 -6 -10 -13 0 -13 -72
-87 -85 -87 -4 0 -15 -8 -24 -18 -18 -19 -76 -42 -109 -42 -12 0 -22 -5 -22
-11 0 -7 -40 -9 -122 -6 -134 5 -198 14 -198 28 0 5 -7 9 -15 9 -26 0 -57 23
-128 92 -43 43 -70 79 -73 98 -4 16 -9 30 -13 30 -4 0 -13 21 -21 48 -19 61
-21 323 -2 330 7 2 12 17 12 33 0 16 5 29 10 29 6 0 10 9 10 20 0 11 5 20 10
20 6 0 10 7 10 15 0 20 105 125 125 125 8 0 15 5 15 10 0 6 9 10 20 10 11 0
20 5 20 10 0 6 9 10 20 10 11 0 20 5 20 10 0 6 23 10 50 10 28 0 50 5 50 10 0
6 30 10 70 10 40 0 70 -4 70 -10z m1020 0 c0 -5 18 -10 40 -10 22 0 40 -4 40
-10 0 -5 12 -10 26 -10 16 0 37 -12 54 -30 15 -16 33 -30 39 -30 17 0 81 -67
81 -85 0 -8 5 -15 10 -15 6 0 10 -9 10 -20 0 -11 5 -20 10 -20 6 0 10 -9 10
-20 0 -11 5 -20 10 -20 6 0 10 -18 10 -40 0 -22 5 -40 10 -40 16 0 12 -129 -4
-146 -12 -12 -74 -14 -360 -14 l-346 0 0 -50 c0 -27 5 -50 10 -50 6 0 10 -9
10 -20 0 -11 5 -20 10 -20 6 0 10 -7 10 -15 0 -20 85 -105 105 -105 8 0 15 -4
15 -10 0 -6 47 -10 120 -10 73 0 120 4 120 10 0 6 7 10 15 10 9 0 36 20 60 45
25 24 45 51 45 60 0 12 16 15 90 15 89 0 90 0 90 -25 0 -14 -4 -25 -10 -25 -5
0 -10 -11 -10 -25 0 -14 -4 -25 -10 -25 -5 0 -10 -7 -10 -15 0 -9 -25 -40 -55
-70 -30 -30 -61 -55 -70 -55 -8 0 -15 -4 -15 -10 0 -5 -9 -10 -20 -10 -11 0
-20 -4 -20 -10 0 -5 -13 -10 -30 -10 -16 0 -30 -4 -30 -10 0 -6 -50 -10 -130
-10 -80 0 -130 4 -130 10 0 6 -18 10 -40 10 -22 0 -40 5 -40 10 0 6 -9 10 -20
10 -11 0 -20 4 -20 9 0 5 -9 13 -20 16 -26 8 -120 100 -120 117 0 8 -9 20 -20
28 -11 8 -20 22 -20 32 0 10 -4 18 -9 18 -14 0 -23 67 -28 218 -3 95 -1 142 6
142 6 0 11 11 11 24 0 28 37 104 63 127 9 9 17 21 17 28 0 6 5 11 10 11 6 0
10 5 10 11 0 16 26 39 44 39 9 0 16 5 16 10 0 6 8 10 18 10 10 0 24 9 32 20 8
11 22 20 32 20 10 0 18 5 18 10 0 6 23 10 50 10 28 0 50 5 50 10 0 6 33 10 80
10 47 0 80 -4 80 -10z m3160 0 c0 -5 18 -10 40 -10 22 0 40 -4 40 -10 0 -5 14
-10 30 -10 17 0 30 -4 30 -10 0 -5 7 -10 15 -10 8 0 15 -4 15 -10 0 -5 6 -10
13 -10 7 0 19 -9 27 -20 8 -11 22 -20 32 -20 9 0 20 -9 23 -20 4 -11 17 -32
31 -45 13 -13 24 -31 24 -40 0 -8 5 -15 10 -15 6 0 10 -9 10 -20 0 -11 5 -20
10 -20 6 0 10 -15 10 -34 0 -19 5 -38 10 -41 6 -4 10 -60 10 -136 0 -79 -4
-129 -10 -129 -5 0 -10 -10 -10 -22 0 -31 -22 -90 -42 -112 -10 -11 -18 -24
-18 -29 0 -13 -98 -105 -120 -112 -11 -3 -20 -11 -20 -16 0 -5 -9 -9 -20 -9
-11 0 -20 -4 -20 -10 0 -5 -18 -10 -40 -10 -22 0 -40 -5 -40 -11 0 -7 -40 -9
-122 -6 -134 5 -198 14 -198 28 0 5 -7 9 -15 9 -17 0 -52 18 -73 38 -7 6 -17
12 -22 12 -13 0 -64 53 -79 83 -8 15 -18 27 -23 27 -4 0 -8 9 -8 20 0 11 -4
20 -10 20 -5 0 -10 9 -10 20 0 11 -4 20 -9 20 -14 0 -23 63 -28 194 -3 76 0
123 6 129 6 6 11 21 11 34 0 13 5 23 10 23 6 0 10 9 10 20 0 11 5 20 10 20 6
0 10 9 10 20 0 11 5 20 10 20 6 0 10 7 10 15 0 17 84 105 100 105 5 0 10 5 10
10 0 6 7 10 15 10 8 0 15 5 15 10 0 6 9 10 20 10 11 0 20 5 20 10 0 6 9 10 20
10 11 0 20 5 20 10 0 6 20 10 45 10 25 0 45 5 45 10 0 6 35 10 85 10 50 0 85
-4 85 -10z m4960 0 c0 -5 23 -10 50 -10 28 0 50 -4 50 -10 0 -5 9 -10 20 -10
11 0 20 -4 20 -10 0 -5 7 -10 15 -10 8 0 15 -4 15 -10 0 -5 5 -10 10 -10 18 0
77 -65 102 -111 21 -42 23 -56 26 -284 1 -132 5 -250 7 -262 4 -17 12 -23 33
-23 44 0 52 -16 52 -102 l0 -78 -100 0 -99 0 -3 63 c-3 61 -3 62 -31 60 -17
-1 -41 -16 -66 -42 -22 -23 -44 -41 -50 -41 -6 0 -11 -4 -11 -10 0 -5 -9 -10
-20 -10 -11 0 -20 -4 -20 -10 0 -5 -15 -10 -34 -10 -19 0 -38 -4 -41 -10 -3
-6 -50 -10 -106 -10 -59 0 -99 4 -99 10 0 6 -13 10 -29 10 -17 0 -33 5 -36 10
-3 6 -13 10 -20 10 -25 0 -100 68 -110 100 -3 11 -10 20 -15 20 -16 0 -36 158
-21 173 6 6 11 24 11 39 0 15 4 28 9 28 5 0 12 9 16 19 14 45 118 121 165 121
11 0 22 5 25 10 4 6 82 10 201 10 225 0 231 2 220 72 -14 84 -67 148 -125 148
-11 0 -23 5 -26 10 -3 6 -35 10 -70 10 -35 0 -67 -4 -70 -10 -3 -5 -19 -10
-36 -10 -16 0 -29 -3 -29 -8 0 -4 -13 -13 -29 -20 -19 -8 -35 -27 -45 -52
l-16 -40 -84 0 c-66 0 -85 3 -90 15 -6 16 19 88 39 113 29 38 85 92 94 92 6 0
11 5 11 10 0 6 9 10 20 10 11 0 20 5 20 10 0 6 9 10 20 10 11 0 20 5 20 10 0
6 20 10 45 10 25 0 45 5 45 10 0 6 35 10 85 10 50 0 85 -4 85 -10z m2030 0 c0
-5 20 -10 45 -10 25 0 45 -4 45 -10 0 -5 11 -10 25 -10 14 0 25 -4 25 -10 0
-5 7 -10 15 -10 8 0 15 -4 15 -10 0 -5 5 -10 11 -10 9 0 80 -69 115 -112 36
-45 66 -170 62 -258 l-3 -65 -355 -5 -355 -5 2 -41 c3 -77 69 -177 134 -206
16 -7 29 -16 29 -20 0 -5 54 -8 120 -8 73 0 120 4 120 10 0 6 7 10 15 10 19 0
75 55 94 93 14 26 17 27 103 27 103 0 103 0 58 -92 -30 -60 -111 -148 -137
-148 -7 0 -13 -4 -13 -10 0 -5 -9 -10 -20 -10 -11 0 -20 -4 -20 -10 0 -5 -15
-10 -34 -10 -19 0 -38 -4 -41 -10 -4 -6 -57 -10 -125 -10 -68 0 -121 4 -125
10 -3 6 -22 10 -41 10 -19 0 -34 5 -34 10 0 6 -9 10 -20 10 -11 0 -20 5 -20
10 0 6 -6 10 -14 10 -19 0 -146 127 -146 146 0 8 -4 14 -10 14 -5 0 -10 7 -10
15 0 8 -4 23 -9 33 -35 69 -44 298 -15 381 30 87 96 191 121 191 5 0 15 9 23
20 8 11 20 20 27 20 7 0 13 5 13 10 0 6 9 10 20 10 11 0 20 5 20 10 0 6 11 10
25 10 14 0 25 5 25 10 0 6 20 10 45 10 25 0 45 5 45 10 0 6 32 10 75 10 43 0
75 -4 75 -10z m-6270 -320 c0 -200 4 -310 10 -310 6 0 10 -11 10 -25 0 -29 50
-84 105 -115 28 -16 54 -20 125 -20 53 0 90 4 90 10 0 6 11 10 24 10 28 0 116
78 116 103 0 9 5 17 10 17 6 0 10 109 10 306 0 251 3 308 14 320 10 9 37 14
86 14 49 0 76 -5 86 -14 12 -12 14 -75 14 -370 l0 -355 38 -3 37 -3 3 -87 3
-88 -101 0 -100 0 0 59 c0 41 -4 60 -14 64 -18 7 -56 -3 -56 -14 0 -14 -61
-69 -76 -69 -8 0 -14 -4 -14 -10 0 -5 -9 -10 -20 -10 -11 0 -20 -4 -20 -10 0
-5 -13 -10 -29 -10 -17 0 -33 -4 -36 -10 -3 -6 -52 -10 -110 -10 -58 0 -107 4
-110 10 -3 6 -22 10 -41 10 -19 0 -34 5 -34 10 0 6 -7 10 -15 10 -15 0 -43 20
-74 51 -50 52 -68 81 -88 140 -22 63 -23 82 -23 373 0 231 3 310 13 321 8 10
35 14 90 15 l77 0 0 -310z m1088 285 c7 -14 12 -55 12 -90 0 -53 3 -65 16 -65
19 0 70 52 79 81 4 10 13 19 21 19 8 0 14 5 14 10 0 6 7 10 15 10 8 0 15 5 15
10 0 6 9 10 20 10 11 0 20 5 20 10 0 6 9 10 20 10 11 0 20 5 20 10 0 6 40 10
100 10 l100 0 0 -68 c0 -40 -5 -73 -12 -80 -7 -7 -43 -12 -90 -12 -45 0 -78
-4 -78 -10 0 -5 -13 -10 -30 -10 -16 0 -30 -4 -30 -10 0 -5 -5 -10 -11 -10 -9
0 -40 -30 -79 -77 -6 -7 -10 -19 -10 -28 0 -8 -4 -15 -10 -15 -6 0 -10 -101
-10 -284 0 -156 -3 -291 -6 -300 -9 -23 -179 -23 -188 0 -3 9 -6 171 -6 360
l0 344 -26 0 c-42 0 -54 21 -54 100 0 42 5 77 13 85 8 10 35 14 88 15 72 0 76
-1 87 -25z m5880 0 c7 -14 12 -49 12 -78 0 -70 11 -85 44 -67 14 7 28 21 31
31 8 23 60 79 74 79 6 0 11 5 11 10 0 6 9 10 20 10 11 0 20 5 20 10 0 6 9 10
20 10 11 0 20 5 20 10 0 6 40 10 100 10 l100 0 0 -64 c0 -96 0 -96 -90 -96
-44 0 -82 -4 -85 -10 -3 -5 -15 -10 -26 -10 -46 0 -101 -50 -134 -123 -24 -51
-25 -57 -25 -319 0 -146 -3 -273 -6 -282 -5 -13 -23 -16 -95 -16 l-89 0 0 360
0 360 -31 0 c-48 0 -59 19 -59 100 0 42 5 77 13 85 8 10 35 14 88 15 72 0 76
-1 87 -25z"/>
<path d="M19550 23580 c0 -5 -13 -10 -30 -10 -16 0 -30 -4 -30 -10 0 -5 -7
-10 -15 -10 -20 0 -105 -85 -105 -105 0 -8 -4 -15 -9 -15 -5 0 -11 -13 -13
-30 l-5 -30 264 0 263 0 0 30 c0 17 -4 30 -10 30 -5 0 -10 9 -10 20 0 11 -4
20 -10 20 -5 0 -10 7 -10 15 0 9 -11 27 -25 40 -13 14 -31 25 -40 25 -8 0 -15
5 -15 10 0 6 -13 10 -29 10 -17 0 -33 5 -36 10 -3 6 -35 10 -71 10 -36 0 -64
-4 -64 -10z"/>
<path d="M20560 23580 c-8 -5 -27 -10 -42 -10 -16 0 -28 -4 -28 -10 0 -5 -7
-10 -15 -10 -20 0 -85 -65 -85 -85 0 -8 -4 -15 -10 -15 -5 0 -10 -13 -10 -30
0 -16 -4 -30 -10 -30 -5 0 -10 -4 -10 -10 0 -6 97 -10 270 -10 263 0 270 0
270 20 0 11 -4 20 -10 20 -5 0 -10 11 -10 25 0 29 -79 115 -105 115 -8 0 -15
3 -15 8 0 24 -158 43 -190 22z"/>
<path d="M23670 23560 c0 -5 -9 -10 -20 -10 -11 0 -20 -4 -20 -10 0 -5 -7 -10
-15 -10 -34 0 -97 -91 -111 -160 -15 -78 -3 -260 17 -260 5 0 9 -9 9 -20 0
-11 4 -20 9 -20 5 0 13 -9 16 -20 3 -11 11 -20 17 -20 6 0 18 -8 27 -19 40
-46 87 -61 191 -61 60 0 100 4 100 10 0 6 9 10 20 10 11 0 20 4 20 8 0 5 12
15 28 23 37 19 52 35 52 53 0 9 3 16 8 16 4 0 13 15 20 33 7 17 18 40 23 49
12 24 12 218 -1 218 -5 0 -10 14 -10 30 0 17 -4 30 -10 30 -5 0 -10 7 -10 15
0 24 -80 98 -121 113 -43 15 -239 17 -239 2z"/>
<path d="M28585 23200 c-3 -5 -13 -10 -22 -10 -23 0 -51 -37 -64 -83 -9 -33
-8 -47 6 -78 22 -47 58 -79 90 -79 14 0 25 -4 25 -10 0 -6 27 -10 60 -10 33 0
60 4 60 10 0 6 16 10 35 10 19 0 35 5 35 10 0 6 6 10 13 10 7 0 23 9 35 20 12
11 24 20 27 20 26 0 76 99 78 153 l2 42 -187 3 c-119 1 -189 -1 -193 -8z"/>
<path d="M30715 23580 c-3 -5 -19 -10 -36 -10 -16 0 -29 -4 -29 -10 0 -5 -7
-10 -15 -10 -34 0 -104 -89 -119 -152 l-6 -28 270 0 c248 0 293 4 260 25 -5 3
-10 17 -10 31 0 13 -4 24 -10 24 -5 0 -10 6 -10 13 0 19 -65 87 -84 87 -9 0
-16 5 -16 10 0 6 -11 10 -24 10 -14 0 -28 5 -31 10 -3 6 -35 10 -70 10 -35 0
-67 -4 -70 -10z"/>
<path fill="#141843" d="M1740 27935 c0 -16 2844 -2865 2860 -2865 5 0 10 -4 10 -10 0 -13
357 -370 370 -370 5 0 10 -4 10 -9 0 -13 76 -91 89 -91 5 0 13 -9 16 -20 3
-11 13 -20 21 -20 8 0 14 -4 14 -8 0 -14 36 -52 49 -52 6 0 11 -4 11 -10 0
-13 257 -270 270 -270 5 0 10 -4 10 -9 0 -12 76 -91 87 -91 5 0 15 -9 23 -21
26 -37 68 -79 78 -79 6 0 14 -9 17 -20 3 -11 11 -20 17 -20 12 0 48 -39 48
-52 0 -4 6 -8 14 -8 8 0 18 -9 21 -20 18 -56 32 -43 795 720 407 407 744 740
750 740 5 0 10 6 10 13 0 8 4 7 10 -3 6 -9 10 -472 10 -1257 0 -683 3 -1248 6
-1257 6 -14 126 -16 1264 -16 1138 0 1258 2 1264 16 10 27 7 5064 -4 5064 -12
0 -1750 -1738 -1750 -1750 0 -6 -7 -10 -15 -10 -8 0 -15 -4 -15 -9 0 -13 -76
-91 -89 -91 -6 0 -11 -4 -11 -9 0 -11 -75 -91 -86 -91 -9 0 -44 -41 -44 -52 0
-4 -7 -8 -15 -8 -8 0 -15 -4 -15 -8 0 -13 -36 -52 -48 -52 -6 0 -14 -9 -17
-20 -3 -11 -12 -20 -20 -20 -8 0 -17 -9 -20 -20 -3 -11 -11 -20 -17 -20 -12 0
-48 -39 -48 -52 0 -4 -6 -8 -14 -8 -8 0 -18 -9 -21 -20 -3 -11 -12 -20 -18
-20 -7 0 -19 -10 -27 -21 -23 -34 -208 -219 -219 -219 -5 0 -12 -6 -15 -12 -5
-10 -7 -10 -12 0 -3 6 -12 12 -19 12 -8 0 -17 9 -20 20 -3 11 -11 20 -16 20
-5 0 -68 59 -139 130 -71 72 -134 130 -139 130 -5 0 -13 9 -16 20 -3 11 -10
20 -15 20 -5 0 -12 9 -15 20 -3 11 -11 20 -16 20 -5 0 -68 59 -139 130 -71 72
-132 130 -136 130 -9 0 -84 81 -84 91 0 5 -6 9 -14 9 -8 0 -18 9 -21 20 -3 11
-11 20 -17 20 -12 0 -48 39 -48 52 0 4 -6 8 -14 8 -8 0 -18 9 -21 20 -3 11
-11 20 -17 20 -14 0 -66 57 -73 81 -4 10 -10 19 -15 19 -13 0 -130 117 -130
129 0 6 -5 11 -11 11 -12 0 -76 61 -291 279 -176 177 -466 466 -510 507 -21
19 -38 39 -38 44 0 6 -5 10 -10 10 -6 0 -45 37 -88 81 -92 98 -284 289 -341
342 -23 21 -41 42 -41 47 0 6 -5 10 -11 10 -6 0 -32 23 -59 50 l-49 50 -1515
0 c-1338 0 -1516 -2 -1516 -15z"/>
<path fill="#253BFF" d="M1720 24114 c0 -1075 2 -1257 14 -1270 22 -21 2490 -21 2512 0 12 13
14 195 14 1270 l0 1256 -1270 0 -1270 0 0 -1256z"/>
<path fill="#141843" d="M0 11665 c0 -4425 2 -8045 5 -8045 2 0 2163 2158 4801 4795 3547
3546 4802 4795 4819 4795 12 0 37 -13 56 -28 19 -16 1812 -1805 3985 -3978
2173 -2172 3963 -3958 3978 -3969 14 -11 26 -25 26 -31 0 -7 10 -18 23 -27 12
-8 65 -58 117 -111 172 -176 208 -211 226 -227 11 -8 45 -43 76 -77 32 -34 60
-62 64 -62 10 0 43 -40 49 -61 4 -11 13 -19 21 -19 8 0 14 -4 14 -10 0 -5 6
-10 13 -10 6 -1 28 -19 47 -41 75 -85 109 -119 118 -119 5 0 15 -13 22 -30 7
-16 17 -30 22 -30 5 0 27 -18 48 -40 21 -22 42 -40 47 -40 5 0 15 -9 23 -21
27 -37 47 -59 56 -59 5 0 16 -9 24 -21 27 -37 47 -59 56 -59 5 0 16 -10 24
-21 20 -29 127 -139 135 -139 10 0 85 -80 85 -91 0 -5 7 -9 15 -9 8 0 15 -4
15 -8 0 -12 35 -52 45 -52 10 0 45 -40 45 -52 0 -4 6 -8 14 -8 8 0 18 -9 21
-20 3 -11 13 -20 21 -20 8 0 14 -9 14 -20 0 -11 6 -20 13 -20 6 0 23 -14 37
-31 56 -68 99 -109 114 -109 8 0 17 -9 21 -19 6 -21 58 -81 69 -81 4 0 42 -36
86 -80 44 -44 83 -80 87 -80 5 0 15 -9 23 -21 27 -37 47 -59 56 -59 5 0 16 -9
24 -21 26 -38 68 -79 79 -79 6 0 11 -4 11 -8 0 -12 35 -52 45 -52 11 0 43 -39
50 -61 4 -11 13 -19 21 -19 8 0 14 -4 14 -10 0 -5 5 -10 11 -10 13 0 49 -38
49 -52 0 -4 5 -8 11 -8 13 0 49 -38 49 -52 0 -4 6 -8 13 -8 7 0 19 -9 27 -21
24 -35 67 -79 77 -79 5 0 15 -9 23 -21 24 -34 47 -59 54 -59 9 0 616 -608 616
-618 0 -4 9 -14 21 -22 39 -28 59 -47 59 -59 0 -6 4 -11 8 -11 14 0 52 -36 52
-49 0 -6 4 -11 8 -11 13 0 52 -36 52 -46 0 -5 10 -16 21 -24 35 -24 139 -128
139 -139 0 -5 9 -13 20 -16 11 -3 20 -13 20 -21 0 -8 4 -14 8 -14 14 0 52 -36
52 -49 0 -6 4 -11 9 -11 13 0 131 -116 131 -129 0 -5 9 -13 20 -16 11 -3 20
-12 20 -18 0 -7 14 -23 31 -37 61 -51 89 -78 89 -87 0 -5 10 -15 21 -23 36
-24 219 -208 219 -220 0 -5 4 -10 9 -10 13 0 91 -76 91 -89 0 -5 9 -13 20 -16
11 -3 20 -12 20 -18 0 -7 10 -19 21 -27 36 -24 259 -249 259 -260 0 -5 4 -10
10 -10 11 0 270 -256 270 -268 0 -4 10 -14 22 -22 11 -8 83 -77 160 -152 l139
-138 5399 0 5400 0 0 1775 0 1775 -7120 0 c-4740 0 -7120 3 -7120 10 0 6 -8
10 -19 10 -12 0 -20 9 -24 29 -9 42 -17 5840 -17 11314 l0 4787 -9685 0 -9685
0 0 -8045z m2740 7135 c0 -60 2 -110 5 -110 9 0 50 25 57 34 10 15 171 12 176
-2 2 -7 11 -12 19 -12 18 0 63 -49 63 -67 0 -7 5 -13 10 -13 6 0 10 -67 10
-180 l0 -180 -40 0 -40 0 0 165 c0 103 -4 165 -10 165 -5 0 -10 5 -10 11 0 19
-24 35 -73 48 -56 14 -106 1 -144 -36 -22 -21 -23 -29 -23 -188 l0 -165 -40 0
-40 0 0 320 0 320 40 0 40 0 0 -110z m-932 78 c7 -7 12 -22 12 -34 0 -13 5
-26 10 -29 6 -3 10 -17 10 -30 0 -13 5 -27 10 -30 6 -3 10 -19 10 -36 0 -16 5
-29 10 -29 6 0 10 -15 10 -34 0 -19 5 -38 10 -41 6 -3 10 -19 10 -35 0 -16 5
-32 10 -35 6 -3 10 -21 10 -40 0 -19 5 -37 10 -40 6 -3 10 -19 10 -35 0 -16 5
-32 10 -35 6 -3 10 3 10 14 0 12 5 21 10 21 6 0 10 14 10 30 0 17 5 30 10 30
6 0 10 14 10 30 0 17 5 30 10 30 6 0 10 15 10 34 0 19 5 38 10 41 6 3 10 21
10 40 0 19 5 37 10 40 6 3 10 17 10 31 0 13 4 32 9 42 5 9 15 37 23 62 13 39
19 45 46 48 40 4 55 -10 72 -70 8 -27 18 -48 22 -48 4 0 8 -15 8 -34 0 -19 5
-38 10 -41 6 -3 10 -19 10 -36 0 -16 5 -29 10 -29 6 0 10 -15 10 -34 0 -19 5
-38 10 -41 6 -3 10 -19 10 -36 0 -16 5 -29 10 -29 6 0 10 -10 10 -22 1 -23 21
-58 34 -58 3 0 6 9 6 20 0 11 5 20 10 20 6 0 10 15 10 34 0 19 5 38 10 41 6 3
10 21 10 40 0 19 5 37 10 40 6 3 10 21 10 40 0 19 5 37 10 40 6 3 10 19 10 36
0 16 5 29 10 29 6 0 10 14 10 30 0 17 5 30 10 30 6 0 10 12 10 26 0 33 21 54
54 54 24 0 26 -4 26 -39 0 -22 -4 -43 -10 -46 -5 -3 -10 -22 -10 -41 0 -19 -4
-34 -9 -34 -5 0 -12 -16 -15 -35 -3 -19 -9 -51 -12 -70 -3 -19 -10 -35 -15
-35 -5 0 -9 -10 -9 -22 0 -13 -14 -61 -30 -108 -16 -47 -30 -95 -30 -107 0
-13 -4 -23 -10 -23 -5 0 -10 -13 -10 -30 0 -29 -1 -30 -50 -30 -43 0 -50 3
-50 20 0 11 -4 20 -10 20 -5 0 -10 18 -10 40 0 22 -4 40 -10 40 -5 0 -10 14
-10 30 0 17 -4 30 -10 30 -5 0 -10 14 -10 30 0 17 -4 30 -10 30 -5 0 -10 14
-10 30 0 17 -4 30 -10 30 -5 0 -10 13 -10 29 0 17 -4 33 -10 36 -5 3 -10 22
-10 41 0 19 -4 34 -10 34 -5 0 -10 14 -10 30 0 17 -4 30 -10 30 -5 0 -10 -11
-10 -24 0 -14 -4 -28 -10 -31 -5 -3 -10 -19 -10 -36 0 -16 -4 -29 -10 -29 -5
0 -10 -11 -10 -25 0 -14 -4 -33 -9 -43 -15 -29 -31 -87 -31 -110 0 -12 -4 -22
-10 -22 -5 0 -10 -15 -10 -34 0 -19 -4 -38 -10 -41 -5 -3 -10 -17 -10 -30 0
-13 -5 -36 -12 -50 -10 -22 -17 -25 -60 -25 l-48 0 0 35 c0 19 -4 35 -10 35
-5 0 -10 13 -10 29 0 17 -4 33 -10 36 -5 3 -10 17 -10 30 0 13 -4 27 -10 30
-5 3 -10 19 -10 36 0 16 -4 29 -10 29 -5 0 -10 13 -10 29 0 17 -4 33 -10 36
-5 3 -10 22 -10 41 0 19 -4 34 -10 34 -5 0 -10 18 -10 40 0 22 -4 40 -10 40
-5 0 -10 14 -10 30 0 17 -4 30 -10 30 -5 0 -10 18 -10 40 0 37 2 40 28 40 15
0 33 -5 40 -12z m3041 -53 c17 -36 31 -70 31 -76 0 -5 4 -17 9 -27 5 -9 13
-28 18 -42 6 -14 25 -59 43 -100 18 -41 37 -86 43 -100 5 -14 13 -33 18 -42 5
-10 9 -25 9 -33 0 -28 35 -16 49 18 7 17 22 51 32 74 10 24 19 50 19 58 0 8 5
15 10 15 6 0 10 9 10 19 0 11 5 23 10 26 6 3 10 17 10 31 0 13 5 24 10 24 6 0
10 7 10 15 0 9 9 35 20 57 11 23 20 48 20 55 0 7 5 13 10 13 6 0 10 6 10 13 0
7 6 25 13 40 9 21 19 27 45 27 43 0 48 -18 23 -71 -12 -23 -21 -49 -21 -56 0
-7 -4 -13 -8 -13 -4 0 -14 -21 -21 -47 -8 -27 -18 -55 -23 -63 -4 -8 -21 -46
-38 -85 -17 -38 -35 -78 -40 -87 -6 -10 -10 -27 -10 -38 0 -11 -4 -20 -8 -20
-5 0 -15 -22 -22 -50 -7 -27 -17 -50 -21 -50 -4 0 -9 -9 -12 -20 -4 -16 -14
-20 -50 -20 -39 0 -49 4 -66 28 -11 16 -26 47 -33 70 -7 23 -16 42 -20 42 -5
0 -8 11 -8 24 0 14 -4 28 -10 31 -5 3 -10 15 -10 26 0 10 -3 19 -8 19 -4 0
-12 15 -18 33 -20 57 -39 102 -45 107 -3 3 -12 26 -20 53 -7 26 -17 47 -21 47
-4 0 -8 9 -8 20 0 11 -9 36 -21 56 -26 46 -19 64 24 64 33 0 36 -4 66 -65z
m638 57 c12 -8 18 -31 15 -64 -1 -10 -14 -21 -28 -24 -20 -5 -31 -1 -49 17
-22 24 -22 24 -3 52 19 27 42 34 65 19z m663 -17 c11 -21 11 -29 0 -50 -23
-44 -90 -26 -90 25 0 51 66 70 90 25z m1591 3 c10 -13 18 -29 19 -36 0 -7 4
-20 10 -30 21 -37 110 -248 110 -259 0 -7 5 -13 10 -13 6 0 10 -6 10 -14 0
-15 35 -98 46 -109 9 -9 33 23 34 46 0 9 5 17 10 17 6 0 10 7 10 15 0 8 4 23
10 33 17 31 50 106 50 113 0 5 13 36 29 71 16 35 41 91 57 126 l28 62 52 0
c38 0 53 -4 58 -16 3 -9 6 -141 6 -294 0 -153 -3 -285 -6 -294 -4 -10 -18 -16
-40 -16 l-34 0 0 208 c0 114 -3 224 -6 245 l-7 37 -30 -67 c-16 -38 -36 -84
-44 -103 -8 -19 -23 -53 -33 -75 -10 -22 -30 -69 -45 -105 -55 -131 -57 -135
-98 -138 -32 -3 -37 0 -43 24 -4 15 -24 62 -45 106 -22 43 -39 83 -39 88 0 6
-4 19 -10 30 -5 11 -14 29 -20 40 -5 11 -10 27 -10 35 0 8 -4 15 -10 15 -5 0
-10 6 -10 13 0 7 -9 33 -21 58 -11 24 -27 58 -34 74 -13 27 -15 4 -15 -212 0
-133 -3 -248 -6 -257 -4 -9 -18 -16 -34 -16 -16 0 -30 7 -34 16 -3 9 -6 141
-6 294 0 153 3 285 6 294 4 12 20 16 56 16 39 0 54 -5 69 -22z m1819 -68 l5
-65 63 -3 c63 -3 70 -9 56 -46 -4 -11 -19 -16 -48 -16 -23 0 -47 -5 -54 -12
-8 -8 -12 -58 -12 -158 0 -100 4 -150 12 -158 7 -7 36 -12 65 -12 52 0 53 0
53 -30 l0 -30 -91 0 c-76 0 -94 3 -105 18 -10 12 -13 60 -14 177 0 201 -1 205
-50 205 -30 0 -40 5 -45 20 -9 30 2 40 45 40 45 0 50 9 50 86 l0 55 33 -3 c32
-3 32 -3 37 -68z m-6067 -82 c32 -16 87 -76 87 -93 0 -8 5 -15 10 -15 6 0 10
-27 10 -60 l0 -60 -180 0 -180 0 0 -36 c0 -45 46 -94 108 -114 36 -11 48 -11
85 1 46 15 60 25 70 52 5 12 17 17 46 17 22 0 43 -4 46 -10 3 -5 1 -10 -4 -10
-6 0 -11 -9 -11 -19 0 -17 -35 -59 -71 -86 -28 -21 -115 -32 -173 -21 -31 6
-56 14 -56 18 0 4 -6 8 -14 8 -19 0 -58 41 -84 90 -31 60 -31 180 1 241 26 52
60 89 82 89 8 0 15 4 15 9 0 22 172 21 213 -1z m888 -15 c21 -14 39 -32 39
-39 0 -8 3 -14 8 -14 15 0 32 -56 32 -107 l0 -53 -175 0 c-192 0 -199 -2 -176
-58 45 -108 177 -135 250 -50 18 22 33 28 62 28 22 0 39 -2 39 -4 0 -13 -31
-74 -47 -92 -22 -25 -43 -34 -111 -49 -55 -12 -145 -1 -168 20 -6 5 -22 19
-35 31 -39 34 -59 63 -59 84 0 10 -4 22 -10 25 -5 3 -10 37 -10 76 0 39 4 69
10 69 6 0 10 14 10 30 0 17 4 30 8 30 4 0 16 14 25 30 34 56 103 81 205 74 46
-3 74 -12 103 -31z m1519 19 c3 -4 16 -13 30 -20 28 -14 50 -54 50 -89 0 -20
-5 -23 -34 -23 -26 0 -36 5 -41 21 -16 50 -115 75 -175 44 -24 -12 -30 -22
-30 -48 0 -39 19 -49 128 -68 39 -8 72 -17 72 -21 0 -4 8 -8 18 -8 25 -1 47
-20 66 -62 15 -32 16 -42 5 -75 -16 -50 -38 -83 -55 -83 -8 0 -14 -4 -14 -10
0 -5 -11 -10 -24 -10 -14 0 -37 -5 -53 -11 -20 -7 -45 -7 -92 3 -53 10 -73 20
-108 53 -30 29 -43 49 -43 68 0 25 3 27 38 27 31 0 39 -5 49 -28 29 -65 192
-72 220 -9 24 53 -32 97 -121 97 -19 0 -38 5 -41 10 -3 6 -19 10 -36 10 -16 0
-29 5 -29 10 0 6 -7 10 -16 10 -9 0 -18 9 -21 20 -3 11 -9 20 -14 20 -13 0
-11 88 3 113 18 35 52 58 103 71 27 7 158 -3 165 -12z m700 -1 c3 -3 16 -12
30 -19 27 -14 70 -73 70 -96 0 -8 5 -18 10 -21 12 -8 13 -149 1 -173 -5 -9
-15 -30 -22 -47 -16 -34 -58 -75 -76 -75 -7 0 -13 -4 -13 -9 0 -10 -59 -22
-110 -23 -97 0 -165 37 -209 116 -30 52 -30 199 -1 251 26 46 65 85 85 85 8 0
15 4 15 9 0 6 17 12 38 14 45 5 175 -3 182 -12z m580 0 c3 -4 12 -10 20 -13 9
-3 29 -25 45 -48 l30 -43 0 -171 0 -171 -37 -3 c-47 -4 -47 -4 -50 191 -3 144
-4 149 -27 167 -42 31 -96 42 -139 30 -81 -25 -91 -51 -92 -237 0 -67 -3 -128
-6 -137 -8 -22 -70 -22 -78 0 -3 9 -6 91 -6 184 0 139 -3 170 -16 180 -9 8
-14 25 -12 44 3 29 6 31 43 31 36 0 40 -3 43 -27 4 -35 14 -35 60 1 20 16 51
32 67 34 38 6 148 -3 155 -12z m1573 -4 c66 -37 107 -106 107 -177 l0 -50
-177 -2 c-201 -3 -201 -4 -168 -79 13 -28 29 -44 61 -59 51 -23 74 -25 123 -7
41 14 54 24 64 50 10 26 87 25 87 -2 0 -26 -58 -101 -79 -101 -6 0 -11 -3 -11
-8 0 -14 -120 -31 -147 -21 -13 5 -34 9 -47 9 -30 0 -102 63 -126 111 -29 56
-28 184 1 242 23 44 65 87 87 87 6 0 12 4 12 9 0 23 173 20 213 -2z m522 -10
c16 -12 32 -25 33 -29 2 -5 9 -14 15 -21 27 -29 37 -60 37 -112 l0 -55 -175 0
c-190 0 -194 -1 -181 -55 13 -52 91 -105 154 -105 42 0 112 45 112 72 0 9 73
11 83 2 11 -12 -32 -82 -65 -107 -41 -29 -139 -50 -174 -37 -14 6 -36 10 -50
10 -13 0 -24 5 -24 10 0 6 -5 10 -11 10 -10 0 -41 30 -75 72 -33 42 -44 156
-23 229 22 71 86 129 159 142 52 10 154 -5 185 -26z m788 10 c43 -24 77 -74
77 -113 0 -22 -69 -19 -77 4 -14 35 -64 62 -116 62 -40 0 -97 -34 -97 -57 0
-38 29 -55 125 -73 39 -7 74 -17 80 -22 5 -4 15 -8 22 -8 24 0 63 -43 69 -78
16 -85 -36 -150 -136 -170 -99 -20 -200 14 -240 81 -31 51 -27 67 19 67 33 0
40 -4 51 -30 7 -18 20 -30 31 -30 10 0 21 -4 24 -10 9 -14 106 -12 138 3 31
14 40 35 31 72 -7 29 -57 55 -107 55 -31 0 -83 14 -126 34 -31 14 -61 63 -61
99 0 36 39 104 65 113 71 25 184 26 228 1z m-6275 -17 c5 -38 19 -46 39 -24
35 38 71 54 123 54 55 0 69 -14 51 -48 -7 -13 -25 -21 -61 -25 -41 -5 -58 -13
-86 -41 l-34 -34 0 -156 0 -156 -40 0 -40 0 0 178 c0 166 -1 179 -20 192 -14
10 -20 26 -20 53 l0 38 43 -3 c36 -3 42 -6 45 -28z m1712 -200 l0 -230 -40 0
-40 0 0 230 0 230 40 0 40 0 0 -230z m648 20 c1 -113 0 -215 -3 -227 -4 -17
-13 -23 -34 -23 -17 0 -31 6 -35 16 -8 21 -8 408 0 429 5 11 16 15 38 13 l31
-3 3 -205z m-1640 -702 c8 -8 12 -47 12 -110 0 -54 3 -98 6 -98 3 0 20 10 37
22 25 18 44 22 109 22 44 0 83 -5 86 -10 4 -6 15 -13 24 -17 9 -3 30 -25 45
-48 27 -41 28 -48 31 -192 4 -188 2 -197 -43 -197 l-35 0 0 160 c0 100 -4 160
-10 160 -5 0 -10 7 -10 15 0 8 -15 25 -32 36 -48 30 -150 22 -184 -14 -22 -24
-24 -33 -26 -189 l-3 -163 -34 -3 c-20 -2 -37 2 -42 10 -10 15 -12 571 -3 606
7 25 51 31 72 10z m-2662 -22 c31 -31 8 -86 -36 -86 -43 0 -66 53 -37 85 16
19 55 19 73 1z m1442 -47 c18 -34 32 -70 32 -80 0 -11 5 -19 10 -19 6 0 10 -9
10 -19 0 -11 5 -23 10 -26 6 -3 10 -17 10 -31 0 -13 5 -24 10 -24 6 0 10 -7
10 -15 0 -8 9 -30 20 -50 11 -20 20 -42 20 -50 0 -8 5 -15 10 -15 6 0 10 -11
10 -25 0 -14 5 -25 10 -25 6 0 10 -9 10 -19 0 -11 5 -23 10 -26 6 -3 10 -17
10 -31 0 -13 5 -24 10 -24 6 0 10 -9 10 -20 0 -11 5 -20 10 -20 6 0 10 -9 10
-20 0 -17 -7 -20 -40 -20 -29 0 -40 4 -40 15 0 8 -4 15 -10 15 -5 0 -10 9 -10
19 0 11 -4 23 -10 26 -5 3 -10 15 -10 26 0 10 -4 19 -10 19 -5 0 -10 8 -10 18
0 9 -7 25 -14 35 -11 15 -31 17 -147 17 -74 0 -138 -4 -144 -8 -15 -10 -35
-49 -35 -67 0 -8 -4 -15 -10 -15 -5 0 -10 -9 -10 -19 0 -11 -4 -23 -10 -26 -5
-3 -10 -14 -10 -25 0 -20 -19 -30 -56 -30 -39 0 -34 31 27 152 5 10 9 25 9 33
0 8 5 15 10 15 6 0 10 11 10 25 0 14 5 25 10 25 6 0 10 11 10 25 0 14 5 25 10
25 6 0 10 7 10 15 0 8 9 30 20 50 11 20 20 42 20 50 0 8 5 15 10 15 6 0 10 11
10 25 0 14 5 25 10 25 6 0 10 9 10 19 0 11 5 23 10 26 6 3 10 17 10 31 0 13 5
24 10 24 6 0 10 6 10 14 0 18 15 24 61 25 34 1 37 -2 67 -60z m1752 39 c24
-26 24 -28 4 -56 -8 -12 -26 -22 -39 -22 -28 0 -56 35 -47 59 17 45 50 53 82
19z m-2980 -52 c0 -80 4 -86 60 -86 61 0 80 -7 80 -30 0 -20 -19 -30 -60 -30
-61 0 -60 2 -60 -170 0 -177 -3 -170 75 -170 43 0 58 -15 48 -47 -7 -19 -170
-18 -189 1 -11 12 -14 51 -14 186 0 184 -4 200 -52 200 -33 0 -51 14 -46 36 2
14 14 20 48 24 l45 5 3 55 c3 73 7 80 37 80 24 0 25 -3 25 -54z m3222 -13 l3
-68 62 -5 c34 -3 65 -9 69 -13 14 -14 -12 -42 -42 -45 -81 -7 -75 7 -72 -175
l3 -162 58 -3 c56 -3 57 -4 57 -32 l0 -30 -89 0 c-122 0 -121 -2 -121 200 0
193 -2 198 -49 202 -31 3 -36 6 -36 28 0 21 5 25 35 28 43 4 50 14 50 73 0 50
13 69 47 69 20 0 22 -5 25 -67z m1342 45 c3 -13 6 -44 6 -70 l0 -47 63 -3 c59
-3 62 -4 62 -28 0 -22 -5 -25 -45 -28 -24 -2 -50 -8 -57 -14 -18 -15 -18 -301
0 -316 7 -6 35 -12 62 -14 46 -3 50 -5 53 -30 l3 -28 -91 0 c-66 0 -95 4 -106
14 -11 12 -14 51 -14 186 0 186 -3 196 -55 202 -29 3 -55 31 -42 44 4 4 26 10
50 13 l42 6 3 55 c3 72 7 80 36 80 16 0 26 -7 30 -22z m-4064 -126 c3 -4 17
-13 33 -21 15 -8 27 -20 27 -28 0 -7 5 -13 10 -13 6 0 10 -16 10 -35 0 -32 -2
-35 -29 -35 -21 0 -36 8 -51 30 -49 68 -200 59 -200 -12 0 -36 28 -53 115 -68
104 -18 165 -49 165 -84 0 -8 5 -18 10 -21 6 -3 10 -19 10 -35 0 -16 -4 -32
-10 -35 -5 -3 -10 -13 -10 -22 0 -9 -14 -28 -30 -43 -42 -38 -131 -55 -197
-39 -76 19 -133 52 -133 78 0 6 -4 11 -10 11 -5 0 -10 14 -10 30 0 28 2 30 40
30 29 0 40 -4 40 -15 0 -8 5 -15 10 -15 6 0 10 -6 10 -14 0 -31 127 -49 173
-24 50 27 60 55 29 89 -17 17 -77 35 -189 56 -18 3 -33 9 -33 14 0 4 -9 11
-20 14 -11 3 -20 13 -20 21 0 8 -4 14 -10 14 -5 0 -10 20 -10 45 0 77 40 124
120 139 33 6 153 -3 160 -12z m1695 -13 c36 -22 85 -92 85 -122 0 -25 -56 -22
-78 4 -9 11 -24 29 -32 38 -23 27 -92 41 -142 28 -49 -12 -59 -20 -87 -71 -24
-42 -28 -133 -8 -168 61 -107 197 -119 257 -23 18 29 27 35 56 35 41 0 44 -19
13 -77 -27 -50 -75 -80 -146 -92 -56 -8 -153 4 -153 20 0 4 -13 12 -30 19 -16
7 -30 19 -30 26 0 8 -4 14 -10 14 -5 0 -10 7 -10 15 0 8 -4 15 -10 15 -5 0
-10 9 -10 19 0 11 -4 23 -10 26 -5 3 -10 40 -10 81 0 43 4 74 10 74 6 0 10 14
10 30 0 17 5 30 10 30 6 0 10 5 10 10 0 14 40 54 71 70 65 35 183 34 244 -1z
m1578 1 c52 -31 86 -89 94 -160 l6 -60 -166 0 c-91 0 -172 -3 -181 -6 -21 -8
-20 -38 2 -77 24 -44 32 -52 71 -65 68 -24 146 -3 172 44 10 19 21 24 51 24
41 0 48 -13 26 -53 -56 -107 -240 -134 -337 -51 -41 36 -71 84 -71 115 0 10
-4 21 -10 24 -5 3 -10 28 -10 55 0 27 5 52 10 55 6 3 10 15 10 26 0 59 83 138
160 153 48 9 138 -3 173 -24z m511 -3 c17 -12 36 -26 42 -32 22 -21 44 -74 38
-90 -9 -23 -64 -16 -78 10 -35 63 -105 85 -179 58 -67 -24 -88 -61 -88 -155 0
-90 15 -123 68 -148 49 -23 82 -25 132 -7 42 14 61 30 61 49 0 22 22 38 52 38
34 0 43 -17 28 -54 -47 -126 -258 -159 -360 -58 -21 20 -43 48 -51 62 -17 33
-18 222 -1 228 7 2 12 10 12 18 0 18 56 75 90 91 61 30 186 24 234 -10z
m-4500 17 c14 -5 16 -34 16 -218 0 -228 -2 -236 -52 -236 l-28 0 0 230 0 230
24 0 c13 0 31 -3 40 -6z m1823 -24 c8 -40 22 -48 43 -23 25 32 75 53 124 53
50 0 59 -8 51 -43 -6 -21 -14 -25 -62 -30 -48 -5 -60 -11 -89 -43 l-34 -37 0
-153 0 -154 -40 0 -40 0 0 173 c0 159 -2 175 -20 195 -12 13 -20 35 -20 57 0
34 1 35 40 35 37 0 41 -3 47 -30z m1373 -200 l0 -230 -34 0 c-22 0 -36 6 -40
16 -3 9 -6 109 -6 224 0 223 -1 218 53 219 l27 1 0 -230z"/>
<path d="M3330 18657 c-14 -6 -31 -17 -38 -24 -7 -7 -18 -13 -23 -13 -5 0 -9
-7 -9 -15 0 -8 -4 -15 -10 -15 -5 0 -10 -9 -10 -20 0 -19 7 -20 140 -20 133 0
140 1 140 20 0 11 -4 20 -10 20 -5 0 -10 7 -10 16 0 21 -18 37 -61 52 -43 15
-76 14 -109 -1z"/>
<path d="M4196 18658 c-34 -12 -74 -49 -76 -69 -6 -38 -2 -39 130 -39 140 0
145 2 118 53 -16 31 -28 40 -69 55 -42 14 -63 14 -103 0z"/>
<path d="M6435 18657 c-16 -6 -45 -27 -62 -45 -31 -32 -33 -39 -33 -107 0 -90
18 -127 77 -155 45 -21 108 -27 118 -10 3 6 13 10 21 10 38 0 84 83 84 150 0
44 -20 100 -45 125 -20 20 -89 46 -116 44 -8 -1 -27 -6 -44 -12z"/>
<path d="M8575 18649 c-40 -19 -75 -64 -67 -87 3 -9 40 -12 134 -12 l131 0 -7
32 c-8 40 -21 56 -64 74 -46 19 -79 17 -127 -7z"/>
<path d="M9095 18658 c-38 -14 -85 -62 -85 -88 0 -19 6 -20 135 -20 145 0 151
2 123 52 -19 33 -30 42 -69 56 -42 14 -63 14 -104 0z"/>
<path d="M3185 17652 c-15 -31 -31 -65 -36 -74 -5 -10 -9 -25 -9 -33 0 -8 -4
-15 -10 -15 -5 0 -10 -8 -10 -18 0 -10 -5 -23 -11 -29 -23 -23 3 -33 91 -33
48 0 95 3 104 6 17 7 22 54 6 54 -5 0 -10 9 -10 20 0 11 -4 20 -10 20 -5 0
-10 9 -10 19 0 11 -4 23 -10 26 -5 3 -10 17 -10 31 0 13 -4 24 -10 24 -5 0
-10 7 -10 16 0 8 -6 22 -14 30 -13 12 -18 6 -41 -44z"/>
<path d="M5670 17577 c-46 -16 -62 -27 -77 -54 -29 -51 -23 -53 117 -53 l130
0 0 25 c0 32 -34 68 -79 83 -40 14 -45 14 -91 -1z"/>
<path fill="#141843" d="M0 1715 l0 -1705 1711 0 1710 0 -21 30 c-12 17 -34 38 -48 48 -15 9
-31 22 -35 30 -7 11 -35 39 -146 147 -6 6 -74 74 -151 152 -77 79 -144 143
-150 143 -5 0 -10 4 -10 10 0 8 -172 184 -227 231 -10 9 -27 27 -39 40 -11 13
-32 33 -47 44 -15 11 -27 23 -27 28 0 5 -107 114 -212 215 -4 4 -39 40 -78 80
-38 39 -74 72 -80 72 -5 0 -10 7 -10 15 0 8 -18 28 -39 43 -22 15 -47 39 -56
55 -9 15 -20 27 -25 27 -4 0 -32 25 -61 56 -30 31 -69 71 -88 88 -19 17 -41
40 -50 50 -9 11 -26 29 -39 40 -13 12 -49 47 -80 80 -31 32 -63 63 -70 70 -7
6 -26 25 -42 41 -16 17 -34 35 -40 40 -65 61 -130 132 -130 143 0 6 -7 12 -15
12 -8 0 -15 5 -15 10 0 6 -5 10 -10 10 -16 0 -200 188 -200 205 0 8 -7 15 -15
15 -18 0 -65 44 -65 60 0 15 -25 40 -40 40 -16 0 -120 107 -120 125 0 8 -7 15
-15 15 -20 0 -225 205 -225 225 0 8 -7 15 -15 15 -8 0 -164 149 -345 330 -181
182 -332 330 -335 330 -3 0 -5 -767 -5 -1705z"/>
</g>
</svg>
